<?xml version="1.0" encoding="UTF-8" standalone="no"?>
<!-- Created with Inkscape (http://www.inkscape.org/) -->

<svg
   xmlns:dc="http://purl.org/dc/elements/1.1/"
   xmlns:cc="http://creativecommons.org/ns#"
   xmlns:rdf="http://www.w3.org/1999/02/22-rdf-syntax-ns#"
   xmlns:svg="http://www.w3.org/2000/svg"
   xmlns="http://www.w3.org/2000/svg"
   xmlns:sodipodi="http://sodipodi.sourceforge.net/DTD/sodipodi-0.dtd"
   xmlns:inkscape="http://www.inkscape.org/namespaces/inkscape"
   width="210mm"
   height="297mm"
   viewBox="0 0 210 297"
   version="1.1"
   id="svg3811"
   inkscape:version="0.92.4 (5da689c313, 2019-01-14)"
   sodipodi:docname="cvv.svg">
  <defs
     id="defs3805" />
  <sodipodi:namedview
     id="base"
     pagecolor="#ffffff"
     bordercolor="#666666"
     borderopacity="1.0"
     inkscape:pageopacity="0.0"
     inkscape:pageshadow="2"
     inkscape:zoom="0.35"
     inkscape:cx="400"
     inkscape:cy="560"
     inkscape:document-units="mm"
     inkscape:current-layer="layer1"
     showgrid="false"
     inkscape:window-width="1366"
     inkscape:window-height="705"
     inkscape:window-x="-8"
     inkscape:window-y="-8"
     inkscape:window-maximized="1" />
  <metadata
     id="metadata3808">
    <rdf:RDF>
      <cc:Work
         rdf:about="">
        <dc:format>image/svg+xml</dc:format>
        <dc:type
           rdf:resource="http://purl.org/dc/dcmitype/StillImage" />
        <dc:title></dc:title>
      </cc:Work>
    </rdf:RDF>
  </metadata>
  <g
     inkscape:label="Layer 1"
     inkscape:groupmode="layer"
     id="layer1">
    <path
       style="fill:#800080;stroke-width:0.26458332"
       id="path3813"
       d="m 0.94933147,105.64189 c -0.60010243,-1.9936 -0.95819549,-4.0347 -1.17805248,-6.100924 -0.20756812,-2.414243 0.16741654,-4.830386 0.33947233,-7.237515 0.0999856,-1.898328 0.0421672,-3.773369 0.65890423,-5.588762 0.41698085,-1.206 1.30493055,-2.129502 1.97380235,-3.187377 0.9547011,-1.138735 1.4615763,-2.500374 1.9618357,-3.876945 0.5678281,-1.63218 0.6389634,-3.367056 1.0079926,-5.042485 0.289066,-1.173662 0.9052216,-2.203479 1.7075343,-3.094469 3.3690585,-3.349937 7.7788115,-6.337019 12.3801135,-7.383769 1.365414,-0.275153 2.682879,-0.270632 3.94061,0.357976 1.212728,0.921459 1.451585,2.357498 1.602043,3.780359 0.104441,1.51248 0.08039,3.030127 0.07272,4.545136 -0.0098,1.517082 -0.01475,3.034184 -0.01753,4.551294 0.05595,1.448753 -0.0011,2.868165 -0.284846,4.28933 -0.29609,1.336728 -0.382601,2.703197 -0.437886,4.06709 -0.04464,1.49629 -0.0406,2.993477 -0.04034,4.49027 0.0015,1.513316 0.0033,3.02663 0.0042,4.539943 7.94e-4,1.512229 8.47e-4,3.024455 9e-4,4.536684 -0.127941,1.360334 0.1794,2.664184 0.419264,3.989264 0.240577,1.31327 0.914949,2.46709 1.32891,3.72445 0.333358,1.0585 0.996245,1.90069 1.649319,2.76983 0.75478,0.8388 1.893179,0.87984 2.946593,0.96308 0.228516,0.0103 0.457401,0.0476 0.685544,0.031 0.433152,-0.0315 0.97174,-0.19748 1.34821,-0.40786 0.211998,-0.11847 0.800873,-0.54746 0.588913,-0.42893 -8.936601,4.99756 -11.563936,7.52798 -8.560067,4.71189 0.890078,-1.19901 0.91972,-2.71955 0.981967,-4.15327 0.190552,-1.87732 0.458496,-3.74365 0.604067,-5.62616 0.130323,-1.63458 0.588023,-3.19776 1.03429,-4.76421 0.599054,-1.740598 1.238914,-3.459586 1.780691,-5.220978 0.566264,-1.528558 0.795176,-3.143276 1.17742,-4.71992 0.356748,-1.770661 0.960024,-3.472969 1.479544,-5.198086 0.480878,-1.786575 1.167927,-3.503049 1.7765,-5.247349 0.461751,-1.426969 0.991037,-2.826041 1.539174,-4.221623 0.624157,-1.192707 0.985277,-2.497082 1.371216,-3.780896 0.317619,-1.513319 0.475629,-3.042877 0.822402,-4.551571 0.04502,-0.218408 0.09431,-0.435981 0.135075,-0.655222 0.06759,-0.363533 0.12073,-1.394455 0.162984,-1.413775 10.395902,-4.752914 10.062331,-8.041354 10.139288,-3.482305 -0.0038,1.868839 0.116811,3.739835 -0.141026,5.595863 -0.38527,1.387239 -0.766328,2.791314 -1.275998,4.140213 -0.467762,1.271188 -0.740807,2.605426 -1.070954,3.917916 -0.218966,1.413528 -0.527674,2.777217 -1.067429,4.103544 -0.590175,1.353915 -0.753584,2.828751 -1.076251,4.257157 -0.27027,1.821238 -0.697794,3.598317 -1.217396,5.362709 -0.426802,1.604376 -0.736716,3.229788 -1.166299,4.833845 -0.365826,1.532745 -0.447987,3.109492 -0.501505,4.67818 -0.03649,1.524178 -0.02904,3.048958 -0.02643,4.573438 -0.119081,1.47901 0.167507,2.87326 0.594164,4.27694 0.409519,1.63685 0.919699,3.24259 1.438873,4.84748 0.700619,1.78906 1.413846,3.57223 2.212826,5.31945 0.569635,1.20196 1.605167,2.09919 2.533555,3.03274 0.681223,0.83161 1.321755,1.66286 2.355898,2.03442 1.15275,0.30393 2.316141,0.36115 3.336044,-0.3139 3.557529,-1.85323 1.755788,-0.92259 -8.691515,4.98357 -0.08718,0.0493 0.373015,-0.1257 0.729951,-0.65421 0.222178,-0.32897 0.44224,-0.85903 0.601255,-1.20967 0.560435,-1.56657 0.634368,-3.24006 0.94374,-4.86305 0.374581,-1.74241 0.76441,-3.48254 1.158856,-5.22097 0.482677,-1.55436 1.081265,-3.06843 1.81215,-4.5221 0.350877,-0.6099 0.631359,-1.25578 0.92161,-1.89553 0,0 10.221319,-4.59906 10.221319,-4.59906 v 0 c -0.376475,0.6179 -0.59981,1.27055 -0.923583,1.91712 -0.812591,1.36007 -1.369502,2.81201 -1.957472,4.27944 -0.483016,1.69387 -0.74281,3.4553 -1.174647,5.16335 -0.347652,1.66482 -0.478205,3.35134 -0.860507,5.00996 -1.467617,5.15892 -5.669714,6.53417 -11.617399,8.54258 -1.322446,0.23171 -2.629689,0.13845 -3.867886,-0.42715 -1.04208,-0.59375 -1.818068,-1.45444 -2.568704,-2.38115 -0.984195,-1.06031 -2.107801,-2.0332 -2.689873,-3.3889 -0.782082,-1.79852 -1.486692,-3.62664 -2.252562,-5.43219 -0.524018,-1.60707 -1.098349,-3.1965 -1.468462,-4.84883 -0.471794,-1.49735 -0.906261,-2.97485 -0.758497,-4.56772 -0.0028,-1.53553 -0.0098,-3.07122 0.01532,-4.60661 0.03972,-1.63225 0.103693,-3.27 0.40091,-4.879546 0.335042,-1.647269 0.889497,-3.24136 1.174451,-4.9048 0.50501,-1.738363 1.049221,-3.464007 1.233238,-5.274326 0.287835,-1.481529 0.511485,-2.981934 0.963462,-4.424408 0.521412,-1.290473 1.082969,-2.529318 1.149276,-3.94984 0.295659,-1.360281 0.659067,-2.701285 0.987671,-4.051636 0.517202,-1.302514 0.883476,-2.636729 1.392978,-3.946543 0.364437,-1.78874 0.322805,-3.585517 0.259954,-5.407501 -0.20261,-4.667764 -0.284361,-0.783717 9.999239,-6.478948 0.05267,-0.02917 -0.09396,0.08469 -0.111133,0.142391 -0.184611,0.620342 -0.107149,1.301456 -0.294426,1.922785 -0.336497,1.526347 -0.695047,3.021894 -0.827421,4.586875 -0.284173,1.35527 -0.725686,2.698361 -1.245809,3.974296 -0.757637,1.269243 -1.11805,2.76489 -1.631117,4.143015 -0.665035,1.703959 -1.249045,3.434022 -1.833525,5.165992 -0.425802,1.737934 -1.150586,3.387439 -1.458875,5.1582 -0.400995,1.601579 -0.639948,3.234849 -1.16182,4.805532 -0.599094,1.716466 -1.03255,3.489664 -1.788155,5.152877 -0.377301,1.536337 -0.948663,3.004613 -1.142423,4.58783 -0.134726,1.867945 -0.34516,3.728845 -0.62488,5.580845 -0.02711,1.60803 -0.02381,3.25224 -0.655611,4.76256 -2.258211,4.08288 -0.301355,0.80778 -10.468635,6.71879 -0.892911,0.51911 -2.063548,0.36586 -3.032264,0.28222 -1.33426,-0.21754 -2.589734,-0.58808 -3.457987,-1.70216 -0.736966,-0.96628 -1.424602,-1.94823 -1.819401,-3.11316 -0.398731,-1.31458 -1.110653,-2.50281 -1.400819,-3.8551 -0.236297,-1.38733 -0.629888,-2.7477 -0.491406,-4.17142 -1.8e-5,-1.51207 -1.7e-5,-3.02414 -5.55e-4,-4.536214 -6.88e-4,-1.513285 -0.0019,-3.026572 -0.0042,-4.539856 -0.0016,-1.507122 -0.0067,-3.014401 0.0193,-4.521364 0.03527,-1.413335 0.08115,-2.832899 0.339112,-4.226721 0.280078,-1.36888 0.552027,-2.686677 0.403625,-4.100949 0.0022,-1.5185 0.0061,-3.036996 0.01621,-4.555464 0.0088,-1.481238 0.03221,-2.963764 -0.03404,-4.444037 -0.07029,-0.944906 -0.03349,-2.197624 -0.989966,-2.697215 -1.16877,-0.28429 -2.347904,-0.140086 -3.473735,0.277167 -3.6972509,1.77238 -0.535909,0.273841 8.593524,-5.047785 0.154596,-0.09011 -0.323175,0.156986 -0.470317,0.258819 -0.440821,0.30508 -0.863607,0.578937 -1.307457,0.883904 -0.672508,0.874186 -1.544984,1.570498 -1.950557,2.642764 -0.448751,1.69691 -0.570819,3.435106 -1.008897,5.138036 -0.420338,1.454449 -0.877564,2.924268 -1.749233,4.173262 -0.736195,0.858301 0.01074,-0.07716 -0.638543,0.966013 -0.433376,0.696296 -1.124492,1.204108 -1.493532,1.954958 -0.183748,0.444019 -0.417026,0.870228 -0.554712,1.330619 -0.3860056,1.290717 -0.110448,2.695025 -0.328596,4.011263 -0.1711432,2.345891 -0.5089867,4.703519 -0.3958929,7.053855 0.1785725,1.979118 0.4599769,3.958662 1.1438599,5.835565 0,0 -9.83487556,5.4165 -9.83487556,5.4165 z"
       inkscape:connector-curvature="0" />
    <path
       style="fill:#800080;stroke-width:0.26458332"
       id="path3815"
       d="m 71.52052,47.134642 c -0.08978,2.623346 -0.06621,5.249275 -0.06526,7.873791 0.01617,2.641425 0.0082,5.282837 -0.0024,7.924249 -0.0016,2.713104 -0.0026,5.426279 0.01744,8.139335 0.01352,1.875898 0.03901,3.751794 0.02811,5.627756 -0.01238,1.895203 -0.008,3.790379 -5.29e-4,5.685597 0.0069,1.604079 0.0098,3.208171 0.01132,4.812265 0.0011,1.511702 0.0011,3.023407 0.0011,4.535112 -4.5e-5,1.510453 -9e-5,3.020904 -1.14e-4,4.531355 0.01521,1.190643 0.639799,2.199928 1.005985,3.299772 0.254003,1.241776 0.858475,2.362906 1.30165,3.539796 0.428744,1.28384 0.933995,2.5183 1.203547,3.85039 0,0 -9.891056,5.27352 -9.891056,5.27352 v 0 c -0.220811,-1.28311 -0.707435,-2.45491 -1.109501,-3.68529 -0.436721,-1.19623 -1.104509,-2.31083 -1.340104,-3.57466 -0.37692,-1.21758 -1.086681,-2.3145 -1.142624,-3.62249 -2.4e-5,-1.51041 -6.9e-5,-3.020823 -1.14e-4,-4.531234 -1.6e-5,-1.512036 -1.19e-4,-3.024071 0.0011,-4.536104 0.0016,-1.607939 0.0044,-3.215878 0.01132,-4.823804 0.0074,-1.895004 0.0118,-3.789966 -5.29e-4,-5.684954 -0.01101,-1.885508 0.01484,-3.770955 0.02811,-5.656402 0.01995,-2.71898 0.01908,-5.438077 0.01744,-8.157107 -0.01077,-2.64056 -0.01863,-5.281123 -0.0024,-7.921699 0.0011,-2.602333 0.02537,-5.206169 -0.06525,-7.807291 0,0 9.993421,-5.091903 9.993421,-5.091903 z"
       inkscape:connector-curvature="0" />
    <path
       style="fill:#800080;stroke-width:0.26458332"
       id="path3817"
       d="m 65.546321,56.068147 c 1.475383,-1.026686 2.839749,-2.200434 4.28058,-3.271329 4.107146,-2.968829 8.815864,-4.962655 13.089676,-7.669821 1.246565,-0.592693 2.512758,-1.096526 3.869695,-1.373635 1.494909,-0.247346 3.014165,-0.259376 4.525261,-0.273828 1.474788,-0.05582 2.911845,-0.06804 4.253143,0.605653 1.314201,0.571844 2.152843,1.57253 2.778532,2.827845 0.74309,1.8796 1.012801,3.92457 1.005912,5.936165 -0.07143,1.69282 -0.417616,3.340045 -0.814433,4.979787 -0.189495,1.514673 -0.879081,2.844683 -1.52237,4.200895 -0.569304,1.21593 -1.15008,2.432415 -2.168562,3.330837 -34.116414,19.491129 21.823995,-12.306766 -12.030263,6.984698 -3.056083,1.741474 6.103014,-3.498964 9.154523,-5.248444 -3.360002,1.946992 -6.720002,3.893984 -10.080004,5.840979 -0.184303,0.06359 -0.721211,0.289208 -0.55291,0.190783 3.035117,-1.775 12.168979,-7.049135 9.16259,-5.225902 -3.321087,2.01408 -6.719816,3.897778 -10.10698,5.798629 -1.847009,1.036527 0.644628,-0.667625 -1.006526,0.505018 -0.167616,0.08324 -0.664776,0.343546 -0.502846,0.249725 3.047559,-1.765713 6.097657,-3.52719 9.160672,-5.265955 0.15889,-0.0902 -0.288007,0.226804 -0.445831,0.318852 -1.553009,0.905793 -7.492648,4.829908 -11.24861,6.389569 -4.013708,1.376008 -10.910347,5.755052 6.013231,-3.872934 -0.628248,0.08425 -1.341795,1.203608 -1.883931,1.325774 -0.150226,0.03385 -0.185217,-0.319841 -0.313582,-0.856575 1.384231,-0.283409 2.734739,-0.68848 4.085217,-1.106054 -0.495083,0.221785 1.772949,-0.930346 1.339379,-0.679929 -2.820736,1.629185 -11.324886,6.443388 -8.5041,4.81429 1.465437,-0.846339 24.051676,-13.818142 1.042165,-0.602157 3.652504,-2.386389 2.157616,-1.423895 10.635808,-6.090433 0.2663,-0.146577 0.97826,-0.169778 1.25159,-0.24936 0.375968,-0.109466 0.720966,-0.307266 1.090406,-0.437068 1.32529,-0.284591 2.647212,-0.43372 3.967684,-0.741994 1.493806,-0.327758 3.02314,-0.406469 4.546658,-0.456721 1.872415,-0.02159 3.745015,-0.01384 5.617525,-0.01611 1.64301,0.07907 3.32004,-0.178122 4.93982,0.141468 1.52591,0.188634 2.48203,0.764635 3.17179,2.144768 0.71303,1.518052 0.93675,3.198243 1.10939,4.84936 0.13913,1.596866 0.14604,3.20094 0.15201,4.802605 -0.0382,1.637038 -0.58052,3.188706 -1.09023,4.726194 -0.44133,1.370693 -0.97818,2.702237 -1.51667,4.036534 -2.14845,4.384653 -7.42685,7.134188 -12.19748,7.724235 -1.27459,0.200866 -2.501156,0.573622 -3.801744,0.710059 -1.380869,-0.06694 -2.651041,0.286462 -3.981138,0.564727 -1.33748,0.326178 -2.752582,0.08425 -4.06772,0.46178 -1.242515,0.168376 -2.352305,0.681477 -3.547171,1.008343 -3.564731,0.914934 -12.677137,6.79558 6.244616,-4.000391 -3.649961,2.227751 -4.520811,2.766851 -10.724927,6.126321 -3.074115,1.66461 12.054787,-7.081359 9.101873,-5.210157 -2.938164,1.861855 -7.172397,5.210907 -11.302527,6.206637 -1.400968,0.25229 -2.830488,0.25312 -4.249234,0.26565 0,0 9.043521,-6.598496 9.043521,-6.598496 v 0 c 1.367661,-0.04347 2.7626,-0.08105 4.063434,-0.552828 0.3615,-0.160589 1.402715,-0.730896 1.060564,-0.532395 -3.026071,1.755588 -12.143377,6.953489 -9.081831,5.260526 34.071534,-18.840765 -6.551213,3.020673 1.630315,-0.919414 4.405638,-2.533531 8.271126,-5.576295 13.090877,-6.910229 1.181319,-0.408397 2.393336,-0.674391 3.624844,-0.89114 1.355159,-0.105069 2.719756,-0.167222 4.045248,-0.496689 1.33125,-0.293034 2.67384,-0.337662 4.02489,-0.496293 1.25971,-0.22275 2.48531,-0.590468 3.74914,-0.791916 3.91761,-1.374743 0.15149,-0.09314 -8.53277,5.070337 -0.598801,0.356032 2.30619,-0.987679 1.5865,-1.372338 0.73676,-1.203092 1.10542,-2.62504 1.60216,-3.937873 0.56401,-1.404181 1.01967,-2.874737 1.25624,-4.369766 0.001,-1.572839 0.008,-3.147393 -0.0917,-4.71783 -0.12576,-1.52064 -0.27576,-3.083793 -0.96473,-4.469651 -0.48192,-1.033748 -1.51969,-1.074428 -2.55846,-1.225076 -1.602195,-0.09311 -3.210359,-0.01514 -4.814433,-0.05006 -1.871908,-0.0034 -3.745187,-0.01095 -5.615426,0.07956 -1.492417,0.09061 -2.98027,0.248737 -4.43416,0.613971 -1.306267,0.27781 -2.659777,0.355793 -3.910269,0.862695 -0.572448,0.198641 -1.171493,0.313391 -1.734672,0.536818 -0.181888,0.07216 -0.700606,0.34757 -0.531784,0.248635 6.708193,-3.931301 12.296556,-7.063108 8.598424,-4.988624 -33.621172,19.575751 6.290006,-3.596791 -1.586444,0.965761 -3.387841,1.96246 -6.77128,3.932746 -10.175457,5.866733 -0.396161,0.225071 -0.99209,0.405069 -1.415296,0.54968 -1.442887,0.431152 -2.990085,0.933439 -4.504894,0.710949 -0.253153,-0.277744 -0.557958,-0.516015 -0.759457,-0.833234 -0.428768,-0.67501 1.339757,-1.69346 1.769081,-2.020189 4.515628,-2.596838 8.511103,-5.268997 13.20578,-7.165906 0.812189,-0.438587 1.171813,-0.632984 1.13406,-0.610891 -19.383999,11.34305 -3.846383,2.153684 1.871879,-1.152631 0.345816,-0.149006 1.343287,-0.679545 1.017532,-0.490665 -3.039023,1.762102 -12.251806,6.874113 -9.12659,5.269841 3.455466,-1.773795 6.745695,-3.852534 10.118436,-5.778986 0.162362,-0.09274 0.648597,-0.372444 0.486879,-0.278585 -3.039782,1.764202 -6.080718,3.526417 -9.121077,5.289626 33.611198,-19.438254 -6.196848,3.666128 1.444662,-0.819023 3.34954,-1.965997 6.784718,-3.792781 10.049288,-5.896861 2.785358,-1.795222 -12.658656,7.657134 -8.617911,4.955913 1.283849,-0.465227 1.92926,-1.525828 2.434802,-2.757286 0.674328,-1.262103 1.426803,-2.542736 1.646203,-3.969025 0.366647,-1.594223 0.823614,-3.157461 0.930712,-4.801704 0.159604,-1.821812 -0.118883,-3.705378 -0.752777,-5.420413 -0.533765,-1.017674 -1.304007,-1.723585 -2.396969,-2.124813 -1.295577,-0.369908 -2.630683,-0.275312 -3.965231,-0.252589 -1.467733,0.04167 -2.94926,0.09641 -4.374054,0.486796 -1.285568,0.40473 -2.527732,0.949544 -3.707649,1.601237 -3.755369,1.760739 -0.389154,0.203451 8.386019,-4.923504 0.198255,-0.115832 -0.416211,0.195794 -0.61341,0.313415 -0.387411,0.231073 -0.76722,0.475369 -1.138351,0.731768 -0.19966,0.137938 -0.381865,0.299572 -0.572797,0.449355 -1.557522,0.872403 -2.769195,2.212692 -4.284151,3.152804 0,0 -10.418747,4.181126 -10.418747,4.181126 z"
       inkscape:connector-curvature="0" />
    <path
       style="fill:#800080;stroke-width:0.26458332"
       id="path3819"
       d="m 117.63361,28.991785 c -0.16209,2.337919 0.15464,4.662889 0.3804,6.984751 0.34193,1.936318 0.99469,3.803375 1.52037,5.696976 0.75851,1.885807 1.27272,3.850188 1.77706,5.815484 0.47142,1.809088 0.60352,3.675181 0.96911,5.503841 0.39645,1.601398 0.44234,3.25093 0.63733,4.879472 0.28799,1.58046 0.41713,3.181609 0.82769,4.736298 0.20831,1.256755 0.68483,2.405589 1.20362,3.557805 0.63829,1.321702 0.69796,2.789293 0.98003,4.200152 0.35435,1.296641 0.52711,2.627661 0.84486,3.932287 0.32156,1.1464 1.05059,2.032154 1.76087,2.949988 0.4139,0.682884 0.75011,1.410814 1.10365,2.127628 0,0 -9.76155,5.54908 -9.76155,5.54908 v 0 c -0.31796,-0.649782 -0.62449,-1.306875 -0.98913,-1.929363 -0.81022,-1.038129 -1.56505,-2.095994 -1.96389,-3.371731 -0.33432,-1.313558 -0.53914,-2.64215 -0.87156,-3.956343 -0.30748,-1.326811 -0.27268,-2.733127 -0.86522,-3.992274 -0.55098,-1.206056 -1.10001,-2.395546 -1.29036,-3.723653 -0.42528,-1.602608 -0.56233,-3.240064 -0.85533,-4.870924 -0.25957,-1.598827 -0.24441,-3.233356 -0.61601,-4.818528 -0.36637,-1.817037 -0.49582,-3.660622 -0.90556,-5.470348 -0.50296,-1.953559 -0.9895,-3.916367 -1.77432,-5.780839 -0.58003,-1.949838 -1.17651,-3.912602 -1.57516,-5.904454 -0.20584,-2.339954 -0.55089,-4.670066 -0.53032,-7.023402 0,0 9.99342,-5.091903 9.99342,-5.091903 z"
       inkscape:connector-curvature="0" />
    <path
       id="path3821"
       transform="scale(0.26458333)"
       style="fill:#800080;stroke-width:0.99999994"
       d="m 543.25,135.37891 c 0.091,0.93711 0.19159,1.87492 0.3125,2.81445 -0.12543,2.38601 -0.15011,3.90814 -0.19531,5.13281 1.99592,1.10625 3.66487,2.38741 5.0625,3.81055 -0.0212,-1.539 0.002,-3.0792 0.0449,-4.61914 -1.75213,-2.0404 -3.05344,-4.27187 -4.71289,-6.95703 -0.18178,-0.0384 -0.34984,-0.1036 -0.51172,-0.18164 z m -140.16602,1.82812 -0.64648,0.50195 c 0.19081,-0.0549 0.37797,-0.11793 0.56836,-0.17382 0.0226,-0.10958 0.0539,-0.21869 0.0781,-0.32813 z m 99.29102,55.92188 c -1.6631,1.19206 -3.37172,2.35335 -5.12305,3.53125 1.78832,0.0865 3.44044,0.30815 4.97071,0.63281 0.002,-1.39176 0.0554,-2.77991 0.15234,-4.16406 z m 72.16797,3.26171 c -0.32932,2.02351 -0.78715,4.02204 -1.38281,5.98829 2.1562,-0.65969 4.36455,-1.1306 6.5,-1.17774 0.77068,-0.017 1.53058,0.0279 2.27539,0.12891 -1.69292,-1.73085 -3.67229,-3.17631 -6.03711,-4.19531 -0.45159,-0.26117 -0.90364,-0.50127 -1.35547,-0.74415 z m -88.44336,7.85352 c -0.002,0.002 -0.005,0.002 -0.008,0.004 0.092,0.0549 0.10612,0.0619 0.008,-0.004 z m 85.21875,17.44922 c 0.16667,0.37821 0.71779,1.61196 1.83594,4.13476 0.0807,0.0556 0.12805,0.0825 0.20703,0.13672 -1.23359,-2.5126 -2.3652,-5.00271 -2.04297,-4.27148 z m -71.57227,80.30859 -0.5,0.37891 c 0.13202,-0.0274 0.26086,-0.0582 0.39258,-0.0859 0.0342,-0.0974 0.0715,-0.1952 0.10742,-0.29297 z" />
    <path
       style="fill:#800080;stroke-width:0.26458332"
       id="path3865"
       d="m 107.79649,37.966565 c 0.91816,-1.775852 2.30764,-3.17292 3.9276,-4.309158 3.43964,-1.991003 6.87929,-3.982003 10.31893,-5.973005 0.25984,-0.143849 1.03674,-0.580033 0.77952,-0.431549 -2.92237,1.686999 -5.84277,3.377528 -8.7751,5.04716 -0.26909,0.153215 0.52458,-0.329211 0.78455,-0.497443 0.48448,-0.313524 0.9643,-0.639699 1.44297,-0.962131 1.07891,-0.715084 2.0251,-1.59266 2.99867,-2.437188 0.85804,-0.900502 1.79008,-1.717739 2.72529,-2.537155 3.93546,-3.562877 8.42992,-5.537376 13.2059,-8.281336 1.62207,-0.576356 3.28261,-0.947338 4.989,-1.155469 2.29144,-0.199128 2.81208,0.09966 4.17538,1.885813 1.18791,1.79817 2.21934,3.70209 3.334,5.551966 1.06949,1.310223 1.79463,2.751558 2.17817,4.391038 0.22736,1.594102 -0.40087,3.034821 -1.17226,4.384879 -0.80208,1.036476 -1.39848,2.194602 -1.91623,3.392045 -0.4872,1.159034 -1.19018,2.161707 -2.04803,3.07018 -0.97926,1.17847 -2.20447,2.104613 -3.42397,3.016018 -1.33455,0.989303 -2.77218,1.8142 -4.09174,2.823911 -1.07925,0.742045 -1.88735,1.782217 -2.63486,2.841199 -0.71909,1.271579 -1.64066,2.387563 -2.68626,3.399033 -0.38106,0.256945 -1.49662,1.447287 -1.99071,1.426133 -0.25934,-0.01111 -0.26703,-0.44908 -0.35389,-0.6937 0.57359,-0.253252 1.25185,-0.01212 1.8604,-0.09154 0.39464,-0.0515 0.76667,-0.214101 1.1517,-0.314859 1.36773,-0.235559 2.71494,-0.404016 4.06489,-0.723972 1.4794,-0.401092 3.03586,-0.268835 4.51624,-0.614516 1.49918,-0.370641 3.03644,-0.507206 4.57402,-0.586922 1.51878,-0.05966 3.0391,-0.05506 4.55876,-0.05471 1.5078,-0.05891 2.98753,-0.438891 4.49577,-0.596665 1.58861,-0.146465 3.18476,-0.142642 4.77837,-0.14832 1.65683,-0.04377 3.27127,-0.06511 4.89194,0.288589 1.40205,0.498194 2.18859,1.335397 2.69487,2.713797 0.39915,1.464384 0.41902,2.974107 0.21268,4.467309 -0.22269,1.463017 -0.40516,2.915121 -0.88023,4.320853 -0.48846,1.549976 -1.43918,2.747047 -2.58555,3.860281 -1.06219,0.92324 -2.11669,1.853732 -3.23382,2.710132 -4.32889,2.280695 -8.66818,6.192761 -13.80301,6.954242 -1.26797,0.473406 -2.58236,0.75641 -3.87873,1.135063 -1.36004,0.444169 -2.44037,0.921451 -3.88746,1.1347 -1.56619,0.179067 -3.14553,0.153506 -4.71919,0.159768 -1.3478,0.425644 -2.83532,0.335476 -4.14944,0.830247 -0.78069,0.391033 -1.68126,0.331647 -2.501,0.539433 -0.38525,0.09765 -0.74022,0.290464 -1.11668,0.417875 0,0 8.87307,-6.870145 8.87307,-6.870145 v 0 c 1.20144,-0.351483 2.45751,-0.501152 3.64785,-0.906176 1.42136,-0.218081 2.83691,-0.527918 4.27584,-0.584227 1.54604,-0.02204 3.10585,-0.03579 4.626,-0.351668 1.2993,-0.330332 2.51265,-0.902211 3.81979,-1.209344 1.30085,-0.385342 2.62409,-0.707639 3.93635,-1.047803 4.23145,-1.038829 11.24294,-6.17429 -5.55927,3.879352 1.22771,-0.697349 2.24351,-1.683705 3.30596,-2.598576 1.19412,-0.87394 2.28865,-1.922182 2.77559,-3.354313 0.6333,-1.299626 0.81148,-2.676472 1.00325,-4.097962 0.24356,-1.325928 0.33206,-2.635105 0.0123,-3.965266 -0.3238,-1.037005 -0.98413,-1.504267 -2.05685,-1.720281 -1.56572,-0.244927 -3.15342,-0.11481 -4.73261,-0.132929 -1.57682,0.02519 -3.15717,0.06316 -4.72351,0.262025 -1.52015,0.210563 -3.03113,0.562708 -4.57562,0.489982 -1.50524,0.0055 -3.01209,0.0093 -4.51441,0.114578 -1.51722,0.129442 -3.01491,0.370977 -4.5071,0.673909 -1.5032,0.161851 -3.01465,0.279654 -4.48333,0.664975 -1.35724,0.285819 -2.74608,0.387178 -4.09465,0.724672 -1.15752,0.181335 -2.49887,0.264602 -3.57381,-0.253034 -1.35937,-1.912861 0.0647,-1.500973 1.49325,-2.599812 1.03596,-0.947713 2.08765,-1.884015 2.78685,-3.119096 0.64677,-1.208529 1.51249,-2.297768 2.48301,-3.256573 1.37462,-0.9363 2.63698,-2.017004 4.11831,-2.803134 1.17286,-0.913426 2.41403,-1.724731 3.47359,-2.777334 0.727,-0.945501 1.74245,-1.656749 2.16132,-2.82381 0.66351,-1.151573 0.98407,-2.500993 1.84404,-3.552359 0.87267,-0.969923 1.5071,-2.239323 1.58769,-3.553201 -0.29181,-1.54468 -0.98243,-2.856476 -1.9421,-4.10395 -1.06806,-1.814068 -2.08272,-3.676725 -3.28549,-5.39915 -1.12579,-1.315188 -1.87818,-1.142851 -3.53148,-0.919095 -1.64495,0.287785 -3.28308,0.70058 -4.77971,1.461521 16.48343,-9.607603 9.25308,-5.829554 5.88637,-2.949764 -0.90231,0.82918 -1.84638,1.604741 -2.71719,2.449875 -0.83941,1.015016 -1.93135,1.83719 -2.98006,2.624751 -5.74846,4.683069 -24.3199,13.709766 -4.54581,2.87783 -1.59732,1.005147 -3.12773,2.067933 -4.09554,3.748136 0,0 -10.22337,4.625374 -10.22337,4.625374 z"
       inkscape:connector-curvature="0" />
  </g>
</svg>
